<svg width="40" height="36" viewBox="0 0 40 36" fill="none"
    xmlns="http://www.w3.org/2000/svg">
    <path d="M39.6 0H0.4C0.18 0 0 0.18 0 0.4V3.6C0 3.82 0.18 4 0.4 4H39.6C39.82 4 40 3.82 40 3.6V0.4C40 0.18 39.82 0 39.6 0ZM39.6 31.2H0.4C0.18 31.2 0 31.38 0 31.6V34.8C0 35.02 0.18 35.2 0.4 35.2H39.6C39.82 35.2 40 35.02 40 34.8V31.6C40 31.38 39.82 31.2 39.6 31.2ZM39.6 15.6H0.4C0.18 15.6 0 15.78 0 16V19.2C0 19.42 0.18 19.6 0.4 19.6H39.6C39.82 19.6 40 19.42 40 19.2V16C40 15.78 39.82 15.6 39.6 15.6Z" fill="black"/>
</svg>
